HIERARCHY
ROOT SpineBase
{
  OFFSET 0.000000 0.000000 0.000000
  CHANNELS 6 Xposition Yposition Zposition Zrotation Xrotation Yrotation
  JOINT SpineMid
  {
    OFFSET 0.000000 31.275980 0.000000
    CHANNELS 3 Zrotation Xrotation Yrotation
    JOINT SpineShoulder
    {
      OFFSET -0.043022 23.276213 -0.641576
      CHANNELS 3 Zrotation Xrotation Yrotation
      JOINT Neck
      {
        OFFSET -0.117621 7.719660 -0.583500
        CHANNELS 3 Zrotation Xrotation Yrotation
        JOINT Head
        {
          OFFSET 5.672034 12.541184 1.610153
          CHANNELS 3 Zrotation Xrotation Yrotation
          End Site
          {
            OFFSET 0 0 0
          }
        }
      }
      JOINT ShoulderLeft
      {
        OFFSET -13.700908 -2.605553 -9.969445
        CHANNELS 3 Zrotation Xrotation Yrotation
        JOINT ElbowLeft
        {
          OFFSET -5.604165 -26.435275 -3.855054
          CHANNELS 3 Zrotation Xrotation Yrotation
          JOINT WristLeft
          {
            OFFSET 2.602566 -22.665652 -5.531868
            CHANNELS 3 Zrotation Xrotation Yrotation
            JOINT HandLeft
            {
              OFFSET 0.257703 -7.443155 -0.147013
              CHANNELS 3 Zrotation Xrotation Yrotation
              JOINT HandTipLeft
              {
                OFFSET 0.956296 -6.332811 -0.160730
                CHANNELS 3 Zrotation Xrotation Yrotation
                End Site
                {
                  OFFSET 0 0 0
                }
              }
              JOINT ThumbLeft
              {
                OFFSET 2.706092 -0.084557 -1.172117
                CHANNELS 3 Zrotation Xrotation Yrotation
                End Site
                {
                  OFFSET 0 0 0
                }
              }
            }
          }
        }
      }
      JOINT ShoulderRight
      {
        OFFSET 14.717710 -6.695260 4.299080
        CHANNELS 3 Zrotation Xrotation Yrotation
        JOINT ElbowRight
        {
          OFFSET 1.670968 -26.715433 2.637333
          CHANNELS 3 Zrotation Xrotation Yrotation
          JOINT WristRight
          {
            OFFSET 1.501034 -24.982513 -1.860437
            CHANNELS 3 Zrotation Xrotation Yrotation
            JOINT HandRight
            {
              OFFSET 0.059106 -6.506319 0.175082
              CHANNELS 3 Zrotation Xrotation Yrotation
              JOINT HandTipRight
              {
                OFFSET -0.553818 -6.783819 -0.250582
                CHANNELS 3 Zrotation Xrotation Yrotation
                End Site
                {
                  OFFSET 0 0 0
                }
              }
              JOINT ThumbRight
              {
                OFFSET -5.039120 1.959877 -3.689216
                CHANNELS 3 Zrotation Xrotation Yrotation
                End Site
                {
                  OFFSET 0 0 0
                }
              }
            }
          }
        }
      }
    }
  }
  JOINT HipLeft
  {
    OFFSET -6.577258 2.173540 -6.399888
    CHANNELS 3 Zrotation Xrotation Yrotation
    JOINT KneeLeft
    {
      OFFSET -10.807579 -32.058947 0.994341
      CHANNELS 3 Zrotation Xrotation Yrotation
      JOINT AnkleLeft
      {
        OFFSET -5.911445 -34.409117 5.160063
        CHANNELS 3 Zrotation Xrotation Yrotation
        JOINT FootLeft
        {
          OFFSET 3.386178 -6.620966 -0.125559
          CHANNELS 3 Zrotation Xrotation Yrotation
          End Site
          {
            OFFSET 0 0 0
          }
        }
      }
    }
  }
  JOINT HipRight
  {
    OFFSET 4.698634 0.080453 -0.753833
    CHANNELS 3 Zrotation Xrotation Yrotation
    JOINT KneeRight
    {
      OFFSET -1.774910 -31.695224 6.365679
      CHANNELS 3 Zrotation Xrotation Yrotation
      JOINT AnkleRight
      {
        OFFSET -8.719479 -34.413458 7.547645
        CHANNELS 3 Zrotation Xrotation Yrotation
        JOINT FootRight
        {
          OFFSET 3.964910 -3.819174 -11.736695
          CHANNELS 3 Zrotation Xrotation Yrotation
          End Site
          {
            OFFSET 0 0 0
          }
        }
      }
    }
  }
}
MOTION
Frames: 16
Frame Time: 0.033333
93.865017 76.387739 359.749364 -1.732031 2.145838 -25.961457 1.744412 -0.823612 25.993032 0.524575 -0.641144 0.016207 -0.846010 -0.653046 0.398117 0.000000 0.000000 0.000000 -1.478046 0.076330 0.199792 -1.595534 1.042032 0.707644 6.604808 3.498764 -0.826656 -7.479623 -5.496549 -0.616198 0.000000 0.000000 0.000000 0.000000 0.000000 0.000000 -0.000000 0.000000 0.000000 -3.184248 2.330787 0.442111 -3.082050 5.351642 -0.248006 8.437780 -3.701379 0.332405 0.000000 0.000000 0.000000 0.000000 0.000000 0.000000 5.767067 -1.199772 26.675809 -1.675794 1.730093 -0.443682 1.496863 -8.112335 -3.979093 0.000000 0.000000 0.000000 4.305052 -1.557836 26.417922 -0.633302 0.853671 -0.102033 -7.709528 -16.412575 4.943567 0.000000 0.000000 0.000000
94.415086 76.402244 360.147408 -0.887025 1.589367 -26.290753 1.499450 -1.031791 26.316559 -0.000000 0.000000 0.000000 -1.003509 -0.618043 0.401643 0.000000 0.000000 0.000000 -1.239255 -0.113800 0.203185 -2.007696 1.535750 0.797705 6.707318 3.356788 -0.870910 -8.099242 -6.182542 -0.784620 0.000000 0.000000 0.000000 0.000000 0.000000 0.000000 -0.000000 0.000000 0.000000 -2.873254 2.463973 0.423843 -4.626818 4.363737 -0.317952 10.424314 -4.544475 0.585857 0.000000 0.000000 0.000000 0.000000 0.000000 0.000000 3.406186 -0.879632 26.644090 -0.075331 1.003791 -0.105789 -2.142458 -8.551859 -4.481459 0.000000 0.000000 0.000000 2.339220 -1.152946 26.499771 -0.697430 0.482948 -0.164262 -9.383163 -23.917463 6.476656 0.000000 0.000000 0.000000
94.974418 76.348518 360.546398 -0.177426 1.146424 -26.180433 0.665096 -0.950501 26.187725 -0.000000 0.000000 0.000000 -1.102256 -0.824673 0.504840 0.000000 0.000000 0.000000 -1.163796 0.236291 0.121730 -2.394580 0.974611 0.914707 7.185135 2.918613 -0.945732 -8.747455 -6.801179 -0.971153 0.000000 0.000000 0.000000 0.000000 0.000000 0.000000 -0.000000 0.000000 0.000000 -2.270980 2.170541 0.342520 -6.381116 5.424733 -0.176232 11.595558 -2.921902 0.520730 0.000000 0.000000 0.000000 0.000000 0.000000 0.000000 0.665096 -0.950501 26.187725 2.081520 0.316966 0.252864 -5.270540 -8.672036 -4.815636 0.000000 0.000000 0.000000 0.665096 -0.950501 26.187725 -0.000000 0.000000 0.000000 -14.036007 -36.605339 4.605114 0.000000 0.000000 0.000000
95.669780 76.283508 361.042492 0.656318 0.589139 -26.283046 -0.327636 -0.818832 26.277330 -0.000000 0.000000 0.000000 -1.142476 -1.189080 0.670500 0.000000 0.000000 0.000000 -1.142775 0.752773 0.014532 -2.886943 -0.036006 1.041526 7.878460 3.146028 -1.056733 -9.568789 -8.852935 -1.445164 0.000000 0.000000 0.000000 0.000000 0.000000 0.000000 -0.000000 0.000000 0.000000 -1.587914 1.897871 0.258499 -7.600747 5.937519 -0.058753 11.700196 -2.316818 0.486787 0.000000 0.000000 0.000000 0.000000 0.000000 0.000000 -1.609803 -0.258968 25.877649 3.260147 -0.720431 0.730772 -7.476028 -8.657564 -5.009534 0.000000 0.000000 0.000000 -1.786506 -0.735714 25.961676 1.275089 -0.713478 0.303803 -16.549223 -41.841975 1.948651 0.000000 0.000000 0.000000
96.223367 76.209971 361.377642 1.223022 0.284370 -26.033321 -0.224586 -0.370458 26.054917 -0.392641 0.619525 0.018970 -1.691799 -2.303402 0.814288 0.000000 0.000000 0.000000 -1.724543 0.918197 -0.197332 -2.795881 -2.691236 0.888077 6.641567 7.567527 -0.920869 -8.473309 -12.820789 -2.151225 0.000000 0.000000 0.000000 0.000000 0.000000 0.000000 -0.466267 -0.669056 -0.048142 -1.404672 2.157348 0.260522 -6.736384 3.178679 -0.307295 8.953765 -0.519718 0.171093 0.000000 0.000000 0.000000 0.000000 0.000000 0.000000 -3.616289 -0.078989 25.336443 4.582646 -1.460472 1.098004 -8.505166 -8.508301 -5.050504 0.000000 0.000000 0.000000 -3.440394 -0.842479 25.480367 2.247620 -1.015915 0.527928 -17.311583 -42.596530 -1.207100 0.000000 0.000000 0.000000
96.618245 76.116576 361.567161 1.511295 0.171708 -25.220430 -0.328290 -0.382421 25.248014 -0.520093 0.651335 0.017767 -1.849382 -2.672812 1.006391 0.000000 0.000000 0.000000 -1.735828 0.967294 -0.207675 -2.886587 -3.429998 0.791254 9.618255 3.311955 -1.155410 -9.792423 -9.065851 -1.456639 0.000000 0.000000 0.000000 0.000000 0.000000 0.000000 -0.531465 -0.616231 -0.052402 -0.831529 2.323226 0.218157 -7.968132 0.937313 -0.499845 9.317337 -1.708549 0.336540 0.000000 0.000000 0.000000 0.000000 0.000000 0.000000 -4.964251 0.085964 24.305082 5.507692 -2.022775 1.374862 -8.375608 -8.447528 -5.027157 0.000000 0.000000 0.000000 -4.447302 -1.175531 24.493231 3.873210 -0.798591 0.847206 -15.891108 -37.660899 -3.075239 0.000000 0.000000 0.000000
96.777221 75.910882 361.562637 1.441761 0.303267 -24.118463 -0.220865 -0.402086 24.146090 -0.601229 0.682290 0.013996 -1.865690 -3.227699 1.217709 0.000000 0.000000 0.000000 -2.265710 1.870661 -0.314572 -3.910718 -3.788557 1.273911 12.308717 -0.201054 -1.540528 -8.096684 -6.665356 -0.979277 0.000000 0.000000 0.000000 0.000000 0.000000 0.000000 -0.474874 -0.708120 -0.049598 -0.255173 2.254790 0.159305 -9.394280 -1.304420 -0.701822 11.455316 -4.774745 0.669034 0.000000 0.000000 0.000000 0.000000 0.000000 0.000000 -5.400244 0.133487 23.094543 6.035302 -2.301074 1.518313 -8.125920 -8.588018 -5.110599 0.000000 0.000000 0.000000 -4.576630 -1.716792 23.305619 4.435889 -0.292556 0.902299 -18.119728 -39.952508 -12.469688 0.000000 0.000000 0.000000
96.773500 75.796125 361.438533 1.093059 0.571522 -23.103187 -0.051599 -0.449805 23.124455 -0.595868 0.659094 0.006617 -1.741862 -3.782051 1.422721 0.000000 0.000000 0.000000 -4.075619 5.516607 -0.662484 -3.002049 -8.902458 1.486272 8.890040 3.330551 -1.646367 -10.727214 -3.513595 -0.522587 0.000000 0.000000 0.000000 0.000000 0.000000 0.000000 -0.273434 -0.836721 -0.035395 0.077931 2.012131 0.113583 -10.458811 -2.207776 -0.781751 12.256134 -8.538430 1.049774 0.000000 0.000000 0.000000 0.000000 0.000000 0.000000 -5.038453 0.092152 22.072481 6.115540 -2.318880 1.527355 -7.944458 -8.812607 -5.236836 0.000000 0.000000 0.000000 -4.205813 -2.280790 22.251834 4.847480 0.268075 0.920345 -19.550589 -41.211527 -15.971622 0.000000 0.000000 0.000000
96.536049 75.769694 361.136010 0.397380 1.020861 -22.297253 0.019636 -1.095293 22.293901 -0.115165 1.043690 0.008253 -2.431721 -4.031937 1.549213 0.000000 0.000000 0.000000 -6.381583 10.158340 -0.895569 -0.076645 -16.234989 1.541538 8.519312 1.746339 -1.630511 -8.021866 4.763704 1.041491 0.000000 0.000000 0.000000 0.000000 0.000000 0.000000 0.115034 -1.043705 -0.006156 0.228502 1.621129 0.077070 -10.894501 -2.695718 -0.784209 11.391214 -5.954940 0.777536 0.000000 0.000000 0.000000 0.000000 0.000000 0.000000 -3.811038 -0.037587 21.346649 5.734018 -2.250793 1.448246 -8.149244 -8.889337 -5.372801 0.000000 0.000000 0.000000 -2.987727 -2.906018 21.524188 4.765964 0.948171 0.827509 -21.749603 -43.086213 -20.573252 0.000000 0.000000 0.000000
96.179867 75.362726 360.763343 -0.508196 1.601731 -22.185776 0.515767 -0.581749 22.190555 -0.436844 0.503258 -0.026066 -2.760075 -4.106885 1.537688 0.000000 0.000000 0.000000 -9.044485 15.187491 -0.850751 3.748530 -24.342576 1.966002 4.792352 3.186360 -1.114906 -6.906791 11.234065 2.502197 0.000000 0.000000 0.000000 0.000000 0.000000 0.000000 0.687951 -1.371164 0.039301 0.142595 1.220103 0.061120 -11.765215 -1.657164 -0.675204 12.085650 -4.495847 0.675454 0.000000 0.000000 0.000000 0.000000 0.000000 0.000000 -1.987917 -0.677539 21.494837 5.202195 -1.595097 1.147003 -8.335870 -9.087585 -5.517028 0.000000 0.000000 0.000000 -1.356111 -3.673004 21.541524 4.521088 1.683562 0.701728 -16.350519 -39.052310 6.975443 0.000000 0.000000 0.000000
95.855576 74.629887 360.449467 -1.387845 2.133044 -21.093768 0.729041 -0.618000 21.098646 -0.359280 0.422108 -0.047436 -0.603444 -5.098057 1.744837 0.000000 0.000000 0.000000 -12.037247 20.379283 -0.457201 9.012673 -32.990964 3.110170 -3.002697 8.211235 0.869013 -6.838983 13.378364 3.982361 0.000000 0.000000 0.000000 0.000000 0.000000 0.000000 1.291477 -1.714566 0.090704 -0.139995 0.905955 0.065932 -12.075948 -2.010269 -0.716198 13.263095 -2.987224 0.532710 0.000000 0.000000 0.000000 0.000000 0.000000 0.000000 -0.369496 -1.228555 20.646385 4.877135 -0.973010 0.899543 -8.330768 -9.641775 -5.820250 0.000000 0.000000 0.000000 0.071172 -4.603324 20.567616 4.380467 2.608503 0.570725 -14.098213 -33.545917 23.208967 0.000000 0.000000 0.000000
95.542193 73.663531 360.202256 -2.180849 2.543643 -19.282395 0.917249 -0.618227 19.294753 -0.288661 0.356939 -0.065800 3.900394 -6.866377 2.261919 0.000000 0.000000 0.000000 -14.781539 24.575718 0.191480 13.431028 -39.544989 4.653709 -9.331655 11.833644 3.061783 -8.333638 16.609169 6.327670 0.000000 0.000000 0.000000 0.000000 0.000000 0.000000 1.021078 -1.616301 0.059687 0.166611 0.528087 0.158428 -11.412844 -1.559818 -0.690024 12.674985 -5.556050 0.773657 0.000000 0.000000 0.000000 0.000000 0.000000 0.000000 0.994546 -1.687413 19.052995 4.640422 -0.354838 0.683508 -8.893806 -9.906952 -5.951916 0.000000 0.000000 0.000000 1.220350 -5.650386 18.865783 4.259336 3.711391 0.415166 -13.532308 -29.181838 31.847441 0.000000 0.000000 0.000000
95.254221 72.525850 360.016611 -2.876015 2.863172 -17.347938 0.944934 -0.547733 17.367468 -0.209163 0.323317 -0.083263 12.186409 -10.077989 3.671146 0.000000 0.000000 0.000000 -17.270310 27.957154 0.980738 16.403354 -44.561915 6.007087 -10.074657 13.185677 3.610604 -13.308646 19.300197 8.804050 0.000000 0.000000 0.000000 0.000000 0.000000 0.000000 1.265867 -1.984922 0.066239 -0.027559 0.582230 0.229422 -11.318956 -0.237171 -0.594191 12.153181 -3.694959 0.649061 0.000000 0.000000 0.000000 0.000000 0.000000 0.000000 2.175825 -2.191320 17.342280 4.456403 0.338148 0.456047 -9.659054 -9.981145 -5.952877 0.000000 0.000000 0.000000 2.069619 -6.780802 17.014778 4.378051 4.825373 0.300732 -13.601315 -26.951062 35.053819 0.000000 0.000000 0.000000
95.076993 71.415975 359.895057 -3.306889 3.055555 -15.730466 0.822941 -0.440937 15.752908 -0.134236 0.297283 -0.095732 25.793187 -14.475956 6.837871 0.000000 0.000000 0.000000 -19.108393 29.764122 1.673018 18.820823 -47.370637 7.055349 -12.069163 16.371718 4.872314 -16.706843 17.392286 9.093279 0.000000 0.000000 0.000000 0.000000 0.000000 0.000000 1.455389 -2.305999 0.070509 -0.238610 0.825579 0.305103 -11.370110 0.164247 -0.630586 9.469811 -2.945622 0.616743 0.000000 0.000000 0.000000 0.000000 0.000000 0.000000 2.863698 -2.733200 15.920931 4.495835 1.063273 0.236479 -10.794496 -9.870458 -5.853280 0.000000 0.000000 0.000000 2.405151 -7.831008 15.415450 4.607529 5.783608 0.223766 -13.623744 -28.146931 33.270417 0.000000 0.000000 0.000000
94.895638 70.473948 359.764764 -3.659998 3.252038 -13.921988 0.788577 -0.385644 13.952233 -0.102602 0.299883 -0.105229 45.760944 -18.891041 12.884449 0.000000 0.000000 0.000000 -19.946366 29.797952 2.027420 20.889608 -48.106367 7.727092 -18.946886 20.594403 8.223796 -16.049322 14.628472 8.454505 0.000000 0.000000 0.000000 0.000000 0.000000 0.000000 1.633018 -2.583950 0.078163 -0.505287 1.318960 0.390161 -12.211381 0.161951 -0.782458 8.958740 1.320400 0.503862 0.000000 0.000000 0.000000 0.000000 0.000000 0.000000 3.361032 -3.254632 14.269444 4.577387 1.673887 0.059628 -12.096233 -9.554285 -5.651246 0.000000 0.000000 0.000000 2.781213 -8.976083 13.676776 4.579608 6.832512 0.095461 -13.701161 -30.811809 29.494660 0.000000 0.000000 0.000000
94.839181 69.674039 359.722753 -3.769393 3.309536 -11.850674 0.714426 -0.322975 11.883448 -0.085065 0.319669 -0.107460 67.649669 -20.806543 20.431202 0.000000 0.000000 0.000000 -20.520886 28.674389 2.237705 20.555062 -46.029617 7.178392 -13.693098 15.986600 5.155275 -16.352631 15.585097 8.388864 0.000000 0.000000 0.000000 0.000000 0.000000 0.000000 1.720626 -2.771402 0.081888 -0.651993 1.471753 0.422651 -13.802669 -0.335236 -0.966814 12.993582 1.398475 0.490812 0.000000 0.000000 0.000000 0.000000 0.000000 0.000000 3.209470 -3.532958 12.222584 4.855739 2.018862 -0.012158 -12.686008 -9.176789 -5.328844 0.000000 0.000000 0.000000 2.613689 -9.961263 11.600746 4.721642 7.709429 0.013122 -14.244039 -34.429496 23.044727 0.000000 0.000000 0.000000
